<svg width="512" height="519" viewBox="0 0 512 519" fill="none" xmlns="http://www.w3.org/2000/svg">
<rect x="6" y="7.17285" width="499.672" height="499.827" rx="249.836" fill="#D9D9D9"/>
<circle cx="255.836" cy="257.009" r="249.836" fill="#2A4A7D"/>
<path d="M216.773 181.427H220.979V200.352H290.65V181.427H294.855V86.8047H315.882V181.427H320.088V200.352H351.629V240.303H339.013V280.255C339.013 280.255 318.771 303.823 309.574 321.258C305.373 329.222 303.209 333.83 300.112 342.285C296.31 352.666 293.804 355.953 293.804 369.62C293.804 383.288 309.574 408.521 309.574 411.675C309.574 414.823 304.34 430.53 304.317 430.599H207.312C207.289 430.53 202.055 414.823 202.055 411.675C202.055 408.521 217.825 383.288 217.825 369.62C217.825 355.953 215.319 352.666 211.517 342.285C208.42 333.83 206.256 329.222 202.055 321.258C192.858 303.823 172.616 280.255 172.616 280.255V240.303H160V200.352H191.541V181.427H195.747V86.8047H216.773V181.427Z" fill="#F5F5F5"/>
<rect x="236" y="422" width="40" height="85" fill="#F5F5F5"/>
</svg>
