<svg width="1060" height="1060" viewBox="0 0 1060 1060" fill="none" xmlns="http://www.w3.org/2000/svg">
<circle cx="529.836" cy="295.009" r="249.836" fill="#2A4A7D"></circle>
<path d="M509.269 249.365H511.845V260.958H554.525V249.365H557.1V191.402H569.981V249.365H572.557V260.958H591.878V285.431H584.15V309.904C584.15 309.904 571.751 324.341 566.117 335.021C563.543 339.9 562.218 342.723 560.321 347.902C557.992 354.261 556.457 356.275 556.457 364.647C556.457 373.019 566.115 388.474 566.117 390.408C566.117 392.333 562.92 401.932 562.897 402.001H503.473C503.452 401.937 500.253 392.334 500.253 390.408C500.255 388.474 509.913 373.019 509.914 364.647C509.914 356.275 508.379 354.261 506.049 347.902C504.152 342.723 502.827 339.9 500.253 335.021C494.62 324.341 482.22 309.904 482.22 309.904V285.431H474.492V260.958H493.813V249.365H496.389V191.402H509.269V249.365Z" fill="white"></path>
<path d="M730.453 267.406C744.206 281.159 744.206 303.456 730.453 317.209C730.453 317.209 576.769 467.864 575.26 469.467C573.751 471.071 558.695 484.032 538.474 468.996C523.04 455.638 525.665 435.175 525.665 426.985L525.665 369.341L542.758 370.308L542.758 435.92C542.945 441.733 544.115 448.785 548.331 451.877C559.513 460.077 566.953 452.873 566.959 452.867L715.927 306.833C723.95 298.811 723.95 285.804 715.927 277.781L544.877 106.732C536.855 98.7095 523.848 98.7095 515.826 106.732L338.698 283.859C330.676 291.882 330.676 304.889 338.698 312.911L544.112 517.07C552.134 525.092 556.428 527.535 576.232 527.535L641.575 527.269L641.575 543.377L576.486 543.377C556.428 543.377 544.112 541.079 534.774 530.558L326.247 323.287C312.495 309.534 312.495 287.236 326.247 273.484L506.488 93.2433C520.24 79.4909 542.538 79.4909 556.291 93.2433L730.453 267.406Z" fill="white"></path>
<path d="M127.188 772V587.32H144.516V669.172H202.656V587.32H219.984V772H202.656V682.168H144.516V772H127.188ZM284.697 774.28C272.385 774.28 262.733 771.924 255.741 767.212C248.901 762.348 244.037 755.66 241.149 747.148C238.413 738.484 237.045 728.604 237.045 717.508V640.9C237.045 629.652 238.489 619.924 241.377 611.716C244.417 603.356 249.357 596.896 256.197 592.336C263.189 587.776 272.689 585.496 284.697 585.496C296.553 585.496 305.901 587.776 312.741 592.336C319.733 596.896 324.673 603.356 327.561 611.716C330.449 619.924 331.893 629.652 331.893 640.9V717.736C331.893 728.832 330.449 738.636 327.561 747.148C324.825 755.508 320.037 762.12 313.197 766.984C306.357 771.848 296.857 774.28 284.697 774.28ZM284.697 760.372C292.753 760.372 298.909 758.776 303.165 755.584C307.421 752.24 310.309 747.68 311.829 741.904C313.501 735.976 314.337 729.136 314.337 721.384V637.708C314.337 629.956 313.501 623.192 311.829 617.416C310.309 611.64 307.421 607.232 303.165 604.192C298.909 601 292.753 599.404 284.697 599.404C276.489 599.404 270.181 601 265.773 604.192C261.517 607.232 258.553 611.64 256.881 617.416C255.361 623.192 254.601 629.956 254.601 637.708V721.384C254.601 729.136 255.361 735.976 256.881 741.904C258.553 747.68 261.517 752.24 265.773 755.584C270.181 758.776 276.489 760.372 284.697 760.372ZM347.714 772L352.274 587.32H369.602L406.082 747.604L443.246 587.32H460.574L465.134 772H450.77L447.122 624.94L411.782 772H400.61L365.726 625.168L362.078 772H347.714ZM484.19 772V587.32H550.994V600.772H501.746V670.084H541.874V682.852H501.746V759.004H551.45V772H484.19Z" fill="black"></path>
<path d="M125.307 875V804.53H154.887V813.578H138.183V833.849H151.32V842.81H138.183V866.126H155.061V875H125.307ZM234.73 875V804.53H247.606V866.126H264.658V875H234.73ZM343.558 875V804.53H373.138V813.578H356.434V833.849H369.571V842.81H356.434V866.126H373.312V875H343.558ZM471.947 875.957C466.785 875.957 462.725 874.942 459.767 872.912C456.867 870.882 454.837 868.127 453.677 864.647C452.517 861.109 451.937 857.049 451.937 852.467V827.324C451.937 822.51 452.517 818.334 453.677 814.796C454.837 811.258 456.867 808.532 459.767 806.618C462.725 804.704 466.785 803.747 471.947 803.747C476.819 803.747 480.618 804.588 483.344 806.27C486.128 807.894 488.1 810.243 489.26 813.317C490.42 816.391 491 819.958 491 824.018V829.934H478.646V823.844C478.646 821.872 478.53 820.074 478.298 818.45C478.124 816.826 477.573 815.55 476.645 814.622C475.775 813.636 474.238 813.143 472.034 813.143C469.83 813.143 468.206 813.665 467.162 814.709C466.176 815.695 465.538 817.058 465.248 818.798C464.958 820.48 464.813 822.394 464.813 824.54V855.164C464.813 857.716 465.016 859.833 465.422 861.515C465.828 863.139 466.553 864.386 467.597 865.256C468.699 866.068 470.178 866.474 472.034 866.474C474.18 866.474 475.688 865.981 476.558 864.995C477.486 863.951 478.066 862.588 478.298 860.906C478.53 859.224 478.646 857.339 478.646 855.251V848.9H491V854.555C491 858.731 490.449 862.443 489.347 865.691C488.245 868.881 486.302 871.404 483.518 873.26C480.792 875.058 476.935 875.957 471.947 875.957ZM579.221 875V814.013H567.998V804.53H603.146V814.013H592.097V875H579.221ZM681.767 875V804.53H698.645C703.401 804.53 707.403 805.11 710.651 806.27C713.957 807.372 716.451 809.286 718.133 812.012C719.873 814.738 720.743 818.45 720.743 823.148C720.743 825.99 720.482 828.542 719.96 830.804C719.438 833.066 718.539 835.009 717.263 836.633C716.045 838.199 714.334 839.417 712.13 840.287L721.961 875H709.085L700.559 842.723H694.643V875H681.767ZM694.643 834.632H698.645C701.139 834.632 703.111 834.284 704.561 833.588C706.069 832.834 707.142 831.674 707.78 830.108C708.418 828.484 708.737 826.425 708.737 823.931C708.737 820.393 708.07 817.754 706.736 816.014C705.46 814.216 702.995 813.317 699.341 813.317H694.643V834.632ZM803.093 875V804.53H815.795V875H803.093ZM917.88 875.957C912.718 875.957 908.658 874.942 905.7 872.912C902.8 870.882 900.77 868.127 899.61 864.647C898.45 861.109 897.87 857.049 897.87 852.467V827.324C897.87 822.51 898.45 818.334 899.61 814.796C900.77 811.258 902.8 808.532 905.7 806.618C908.658 804.704 912.718 803.747 917.88 803.747C922.752 803.747 926.551 804.588 929.277 806.27C932.061 807.894 934.033 810.243 935.193 813.317C936.353 816.391 936.933 819.958 936.933 824.018V829.934H924.579V823.844C924.579 821.872 924.463 820.074 924.231 818.45C924.057 816.826 923.506 815.55 922.578 814.622C921.708 813.636 920.171 813.143 917.967 813.143C915.763 813.143 914.139 813.665 913.095 814.709C912.109 815.695 911.471 817.058 911.181 818.798C910.891 820.48 910.746 822.394 910.746 824.54V855.164C910.746 857.716 910.949 859.833 911.355 861.515C911.761 863.139 912.486 864.386 913.53 865.256C914.632 866.068 916.111 866.474 917.967 866.474C920.113 866.474 921.621 865.981 922.491 864.995C923.419 863.951 923.999 862.588 924.231 860.906C924.463 859.224 924.579 857.339 924.579 855.251V848.9H936.933V854.555C936.933 858.731 936.382 862.443 935.28 865.691C934.178 868.881 932.235 871.404 929.451 873.26C926.725 875.058 922.868 875.957 917.88 875.957Z" fill="black"></path>
<path d="M136.758 996.567C133.146 996.567 130.332 995.811 128.316 994.299C126.342 992.787 124.956 990.75 124.158 988.188C123.402 985.626 123.024 982.77 123.024 979.62V961.602C123.024 958.158 123.402 955.155 124.158 952.593C124.956 950.031 126.342 948.057 128.316 946.671C130.332 945.243 133.146 944.529 136.758 944.529C139.95 944.529 142.47 945.117 144.318 946.293C146.208 947.469 147.552 949.149 148.35 951.333C149.19 953.517 149.61 956.142 149.61 959.208V963.24H142.869V959.649C142.869 957.759 142.764 956.1 142.554 954.672C142.386 953.202 141.882 952.068 141.042 951.27C140.202 950.472 138.795 950.073 136.821 950.073C134.805 950.073 133.335 950.514 132.411 951.396C131.487 952.236 130.878 953.454 130.584 955.05C130.332 956.604 130.206 958.431 130.206 960.531V980.754C130.206 983.316 130.416 985.353 130.836 986.865C131.256 988.335 131.949 989.385 132.915 990.015C133.881 990.645 135.183 990.96 136.821 990.96C138.753 990.96 140.139 990.54 140.979 989.7C141.819 988.818 142.344 987.621 142.554 986.109C142.764 984.597 142.869 982.833 142.869 980.817V977.037H149.61V980.817C149.61 983.925 149.232 986.676 148.476 989.07C147.72 991.422 146.418 993.27 144.57 994.614C142.722 995.916 140.118 996.567 136.758 996.567ZM188.333 996.567C184.889 996.567 182.138 995.895 180.08 994.551C178.022 993.207 176.552 991.296 175.67 988.818C174.788 986.298 174.347 983.358 174.347 979.998V960.657C174.347 957.297 174.788 954.42 175.67 952.026C176.594 949.59 178.064 947.742 180.08 946.482C182.138 945.18 184.889 944.529 188.333 944.529C191.777 944.529 194.507 945.18 196.523 946.482C198.539 947.784 199.988 949.632 200.87 952.026C201.794 954.42 202.256 957.297 202.256 960.657V980.061C202.256 983.379 201.794 986.277 200.87 988.755C199.988 991.233 198.539 993.165 196.523 994.551C194.507 995.895 191.777 996.567 188.333 996.567ZM188.333 990.96C190.223 990.96 191.651 990.582 192.617 989.826C193.583 989.028 194.234 987.936 194.57 986.55C194.906 985.122 195.074 983.463 195.074 981.573V959.208C195.074 957.318 194.906 955.701 194.57 954.357C194.234 952.971 193.583 951.921 192.617 951.207C191.651 950.451 190.223 950.073 188.333 950.073C186.443 950.073 184.994 950.451 183.986 951.207C183.02 951.921 182.369 952.971 182.033 954.357C181.697 955.701 181.529 957.318 181.529 959.208V981.573C181.529 983.463 181.697 985.122 182.033 986.55C182.369 987.936 183.02 989.028 183.986 989.826C184.994 990.582 186.443 990.96 188.333 990.96ZM236.851 996L225.448 944.97H232.126L240.19 982.581L247.876 944.97H254.365L243.088 996H236.851ZM278.676 996V944.97H298.458V950.262H285.795V967.146H296.064V972.186H285.795V990.897H298.584V996H278.676ZM323.231 996V944.97H333.5C336.902 944.97 339.716 945.432 341.942 946.356C344.168 947.238 345.806 948.687 346.856 950.703C347.948 952.677 348.494 955.281 348.494 958.515C348.494 960.489 348.284 962.295 347.864 963.933C347.444 965.529 346.772 966.894 345.848 968.028C344.924 969.12 343.706 969.918 342.194 970.422L349.439 996H342.572L335.894 972.06H330.35V996H323.231ZM330.35 966.957H333.059C335.075 966.957 336.713 966.705 337.973 966.201C339.233 965.697 340.157 964.836 340.745 963.618C341.333 962.4 341.627 960.699 341.627 958.515C341.627 955.533 341.081 953.391 339.989 952.089C338.897 950.745 336.734 950.073 333.5 950.073H330.35V966.957ZM375.178 996V944.97H382.171V996H375.178ZM409.327 996V944.97H414.178L428.668 978.864V944.97H434.59V996H430.054L415.375 961.161V996H409.327ZM473.67 996.63C470.478 996.63 467.916 995.958 465.984 994.614C464.094 993.228 462.708 991.233 461.826 988.629C460.986 986.025 460.566 982.896 460.566 979.242V962.169C460.566 958.431 460.944 955.26 461.7 952.656C462.498 950.01 463.884 947.994 465.858 946.608C467.874 945.222 470.667 944.529 474.237 944.529C477.429 944.529 479.991 945.075 481.923 946.167C483.897 947.217 485.325 948.855 486.207 951.081C487.089 953.265 487.53 956.037 487.53 959.397V961.287H480.852V959.712C480.852 957.486 480.705 955.68 480.411 954.294C480.117 952.866 479.508 951.816 478.584 951.144C477.702 950.43 476.295 950.073 474.363 950.073C472.263 950.073 470.73 950.556 469.764 951.522C468.84 952.488 468.252 953.811 468 955.491C467.79 957.129 467.685 958.998 467.685 961.098V979.998C467.685 982.434 467.853 984.471 468.189 986.109C468.567 987.747 469.26 988.965 470.268 989.763C471.276 990.561 472.704 990.96 474.552 990.96C476.4 990.96 477.828 990.519 478.836 989.637C479.844 988.755 480.537 987.453 480.915 985.731C481.293 984.009 481.482 981.867 481.482 979.305V975.777H474.993V970.737H487.908V996H483.435L482.742 990.141C482.07 992.031 481.02 993.585 479.592 994.803C478.164 996.021 476.19 996.63 473.67 996.63ZM553.03 996V950.262H544.399V944.97H568.528V950.262H560.149V996H553.03ZM592.347 996V944.97H599.466V967.02H612.57V944.97H619.689V996H612.57V972.123H599.466V996H592.347ZM646.561 996V944.97H666.343V950.262H653.68V967.146H663.949V972.186H653.68V990.897H666.469V996H646.561ZM724.413 996V944.97H736.131C738.441 944.97 740.436 945.222 742.116 945.726C743.838 946.23 745.266 947.007 746.4 948.057C747.534 949.107 748.374 950.451 748.92 952.089C749.466 953.685 749.739 955.575 749.739 957.759C749.739 959.859 749.466 961.686 748.92 963.24C748.416 964.752 747.618 965.949 746.526 966.831C745.476 967.713 744.111 968.28 742.431 968.532C744.489 968.994 746.148 969.792 747.408 970.926C748.668 972.018 749.592 973.446 750.18 975.21C750.81 976.932 751.125 979.011 751.125 981.447C751.125 983.631 750.873 985.626 750.369 987.432C749.865 989.238 749.067 990.771 747.975 992.031C746.925 993.291 745.56 994.278 743.88 994.992C742.242 995.664 740.289 996 738.021 996H724.413ZM731.532 990.897H736.32C739.512 990.897 741.633 990.162 742.683 988.692C743.775 987.18 744.321 984.765 744.321 981.447C744.321 979.305 744.027 977.52 743.439 976.092C742.893 974.622 741.99 973.53 740.73 972.816C739.512 972.06 737.853 971.682 735.753 971.682H731.532V990.897ZM731.532 966.264H735.753C737.769 966.264 739.344 965.991 740.478 965.445C741.612 964.857 742.41 963.933 742.872 962.673C743.334 961.413 743.565 959.775 743.565 957.759C743.565 955.407 743.208 953.706 742.494 952.656C741.78 951.606 740.667 950.955 739.155 950.703C737.643 950.409 735.669 950.262 733.233 950.262H731.532V966.264ZM773.518 996L784.354 944.97H791.221L802.12 996H795.379L793.048 983.148H782.653L780.196 996H773.518ZM783.598 978.045H792.103L787.819 955.05L783.598 978.045ZM838.046 996.567C835.106 996.567 832.649 995.937 830.675 994.677C828.743 993.417 827.273 991.674 826.265 989.448C825.257 987.222 824.669 984.639 824.501 981.699L830.801 979.998C830.927 981.804 831.2 983.547 831.62 985.227C832.082 986.907 832.817 988.293 833.825 989.385C834.833 990.435 836.24 990.96 838.046 990.96C839.894 990.96 841.28 990.456 842.204 989.448C843.17 988.398 843.653 986.907 843.653 984.975C843.653 982.665 843.128 980.817 842.078 979.431C841.028 978.003 839.705 976.575 838.109 975.147L829.541 967.587C827.861 966.117 826.622 964.521 825.824 962.799C825.026 961.035 824.627 958.872 824.627 956.31C824.627 952.572 825.698 949.674 827.84 947.616C829.982 945.558 832.901 944.529 836.597 944.529C838.613 944.529 840.377 944.802 841.889 945.348C843.443 945.852 844.724 946.65 845.732 947.742C846.782 948.834 847.601 950.22 848.189 951.9C848.819 953.538 849.239 955.47 849.449 957.696L843.401 959.334C843.275 957.654 843.023 956.121 842.645 954.735C842.267 953.307 841.595 952.173 840.629 951.333C839.705 950.451 838.361 950.01 836.597 950.01C834.833 950.01 833.447 950.493 832.439 951.459C831.473 952.383 830.99 953.769 830.99 955.617C830.99 957.171 831.242 958.452 831.746 959.46C832.292 960.468 833.153 961.497 834.329 962.547L842.96 970.107C844.892 971.787 846.593 973.803 848.063 976.155C849.533 978.465 850.268 981.216 850.268 984.408C850.268 986.928 849.743 989.112 848.693 990.96C847.643 992.766 846.194 994.152 844.346 995.118C842.54 996.084 840.44 996.567 838.046 996.567ZM874.69 996V944.97H894.472V950.262H881.809V967.146H892.078V972.186H881.809V990.897H894.598V996H874.69ZM931.279 996.567C928.339 996.567 925.882 995.937 923.908 994.677C921.976 993.417 920.506 991.674 919.498 989.448C918.49 987.222 917.902 984.639 917.734 981.699L924.034 979.998C924.16 981.804 924.433 983.547 924.853 985.227C925.315 986.907 926.05 988.293 927.058 989.385C928.066 990.435 929.473 990.96 931.279 990.96C933.127 990.96 934.513 990.456 935.437 989.448C936.403 988.398 936.886 986.907 936.886 984.975C936.886 982.665 936.361 980.817 935.311 979.431C934.261 978.003 932.938 976.575 931.342 975.147L922.774 967.587C921.094 966.117 919.855 964.521 919.057 962.799C918.259 961.035 917.86 958.872 917.86 956.31C917.86 952.572 918.931 949.674 921.073 947.616C923.215 945.558 926.134 944.529 929.83 944.529C931.846 944.529 933.61 944.802 935.122 945.348C936.676 945.852 937.957 946.65 938.965 947.742C940.015 948.834 940.834 950.22 941.422 951.9C942.052 953.538 942.472 955.47 942.682 957.696L936.634 959.334C936.508 957.654 936.256 956.121 935.878 954.735C935.5 953.307 934.828 952.173 933.862 951.333C932.938 950.451 931.594 950.01 929.83 950.01C928.066 950.01 926.68 950.493 925.672 951.459C924.706 952.383 924.223 953.769 924.223 955.617C924.223 957.171 924.475 958.452 924.979 959.46C925.525 960.468 926.386 961.497 927.562 962.547L936.193 970.107C938.125 971.787 939.826 973.803 941.296 976.155C942.766 978.465 943.501 981.216 943.501 984.408C943.501 986.928 942.976 989.112 941.926 990.96C940.876 992.766 939.427 994.152 937.579 995.118C935.773 996.084 933.673 996.567 931.279 996.567Z" fill="black"></path>
<path d="M588.68 772V587.32H639.524C651.988 587.32 662.78 588.688 671.9 591.424C681.02 594.16 688.088 599.1 693.104 606.244C698.272 613.236 700.856 623.192 700.856 636.112C700.856 643.712 700.248 650.476 699.032 656.404C697.816 662.332 695.536 667.5 692.192 671.908C689 676.164 684.364 679.736 678.284 682.624L703.592 772H661.412L641.12 689.236H629.492V772H588.68ZM629.492 665.752H640.892C646.668 665.752 651.152 664.764 654.344 662.788C657.536 660.66 659.74 657.696 660.956 653.896C662.324 649.944 663.008 645.232 663.008 639.76C663.008 631.856 661.564 625.7 658.676 621.292C655.788 616.884 650.468 614.68 642.716 614.68H629.492V665.752ZM766.007 774.736C751.871 774.736 740.775 772.456 732.719 767.896C724.815 763.184 719.267 756.42 716.075 747.604C712.883 738.636 711.287 727.692 711.287 714.772V587.32H751.643V720.928C751.643 724.728 751.947 728.528 752.555 732.328C753.163 736.128 754.455 739.244 756.431 741.676C758.559 744.108 761.751 745.324 766.007 745.324C770.415 745.324 773.607 744.108 775.583 741.676C777.559 739.244 778.775 736.128 779.231 732.328C779.839 728.528 780.143 724.728 780.143 720.928V587.32H820.727V714.772C820.727 727.692 819.055 738.636 815.711 747.604C812.519 756.42 806.971 763.184 799.067 767.896C791.163 772.456 780.143 774.736 766.007 774.736ZM835.294 772V587.32H864.022L901.87 676.24V587.32H935.614V772H908.026L870.178 676.24V772H835.294Z" fill="black"></path>
<rect x="122.706" y="901" width="818" height="10" fill="#2A4A7D"></rect>
</svg>