<svg width="1253" height="406" viewBox="0 0 1253 406" fill="none" xmlns="http://www.w3.org/2000/svg">
<path d="M432.364 245.169V60.4892H449.692V142.341H507.832V60.4892H525.16V245.169H507.832V155.337H449.692V245.169H432.364ZM589.873 247.449C577.561 247.449 567.909 245.093 560.917 240.381C554.077 235.517 549.213 228.829 546.325 220.317C543.589 211.653 542.221 201.773 542.221 190.677V114.069C542.221 102.821 543.665 93.0932 546.553 84.8852C549.593 76.5252 554.533 70.0652 561.373 65.5052C568.365 60.9452 577.865 58.6652 589.873 58.6652C601.729 58.6652 611.077 60.9452 617.917 65.5052C624.909 70.0652 629.849 76.5252 632.737 84.8852C635.625 93.0932 637.069 102.821 637.069 114.069V190.905C637.069 202.001 635.625 211.805 632.737 220.317C630.001 228.677 625.213 235.289 618.373 240.153C611.533 245.017 602.033 247.449 589.873 247.449ZM589.873 233.541C597.929 233.541 604.085 231.945 608.341 228.753C612.597 225.409 615.485 220.849 617.005 215.073C618.677 209.145 619.513 202.305 619.513 194.553V110.877C619.513 103.125 618.677 96.3612 617.005 90.5852C615.485 84.8092 612.597 80.4012 608.341 77.3612C604.085 74.1692 597.929 72.5732 589.873 72.5732C581.665 72.5732 575.357 74.1692 570.949 77.3612C566.693 80.4012 563.729 84.8092 562.057 90.5852C560.537 96.3612 559.777 103.125 559.777 110.877V194.553C559.777 202.305 560.537 209.145 562.057 215.073C563.729 220.849 566.693 225.409 570.949 228.753C575.357 231.945 581.665 233.541 589.873 233.541ZM652.89 245.169L657.45 60.4892H674.778L711.258 220.773L748.422 60.4892H765.75L770.31 245.169H755.946L752.298 98.1092L716.958 245.169H705.786L670.902 98.3372L667.254 245.169H652.89ZM789.366 245.169V60.4892H856.17V73.9412H806.922V143.253H847.05V156.021H806.922V232.173H856.626V245.169H789.366Z" fill="white"/>
<path d="M430.483 348.169V277.699H460.063V286.747H443.359V307.018H456.496V315.979H443.359V339.295H460.237V348.169H430.483ZM539.906 348.169V277.699H552.782V339.295H569.834V348.169H539.906ZM648.734 348.169V277.699H678.314V286.747H661.61V307.018H674.747V315.979H661.61V339.295H678.488V348.169H648.734ZM777.123 349.126C771.961 349.126 767.901 348.111 764.943 346.081C762.043 344.051 760.013 341.296 758.853 337.816C757.693 334.278 757.113 330.218 757.113 325.636V300.493C757.113 295.679 757.693 291.503 758.853 287.965C760.013 284.427 762.043 281.701 764.943 279.787C767.901 277.873 771.961 276.916 777.123 276.916C781.995 276.916 785.794 277.757 788.52 279.439C791.304 281.063 793.276 283.412 794.436 286.486C795.596 289.56 796.176 293.127 796.176 297.187V303.103H783.822V297.013C783.822 295.041 783.706 293.243 783.474 291.619C783.3 289.995 782.749 288.719 781.821 287.791C780.951 286.805 779.414 286.312 777.21 286.312C775.006 286.312 773.382 286.834 772.338 287.878C771.352 288.864 770.714 290.227 770.424 291.967C770.134 293.649 769.989 295.563 769.989 297.709V328.333C769.989 330.885 770.192 333.002 770.598 334.684C771.004 336.308 771.729 337.555 772.773 338.425C773.875 339.237 775.354 339.643 777.21 339.643C779.356 339.643 780.864 339.15 781.734 338.164C782.662 337.12 783.242 335.757 783.474 334.075C783.706 332.393 783.822 330.508 783.822 328.42V322.069H796.176V327.724C796.176 331.9 795.625 335.612 794.523 338.86C793.421 342.05 791.478 344.573 788.694 346.429C785.968 348.227 782.111 349.126 777.123 349.126ZM884.398 348.169V287.182H873.175V277.699H908.323V287.182H897.274V348.169H884.398ZM986.943 348.169V277.699H1003.82C1008.58 277.699 1012.58 278.279 1015.83 279.439C1019.13 280.541 1021.63 282.455 1023.31 285.181C1025.05 287.907 1025.92 291.619 1025.92 296.317C1025.92 299.159 1025.66 301.711 1025.14 303.973C1024.61 306.235 1023.72 308.178 1022.44 309.802C1021.22 311.368 1019.51 312.586 1017.31 313.456L1027.14 348.169H1014.26L1005.74 315.892H999.819V348.169H986.943ZM999.819 307.801H1003.82C1006.32 307.801 1008.29 307.453 1009.74 306.757C1011.25 306.003 1012.32 304.843 1012.96 303.277C1013.59 301.653 1013.91 299.594 1013.91 297.1C1013.91 293.562 1013.25 290.923 1011.91 289.183C1010.64 287.385 1008.17 286.486 1004.52 286.486H999.819V307.801ZM1108.27 348.169V277.699H1120.97V348.169H1108.27ZM1223.06 349.126C1217.89 349.126 1213.83 348.111 1210.88 346.081C1207.98 344.051 1205.95 341.296 1204.79 337.816C1203.63 334.278 1203.05 330.218 1203.05 325.636V300.493C1203.05 295.679 1203.63 291.503 1204.79 287.965C1205.95 284.427 1207.98 281.701 1210.88 279.787C1213.83 277.873 1217.89 276.916 1223.06 276.916C1227.93 276.916 1231.73 277.757 1234.45 279.439C1237.24 281.063 1239.21 283.412 1240.37 286.486C1241.53 289.56 1242.11 293.127 1242.11 297.187V303.103H1229.75V297.013C1229.75 295.041 1229.64 293.243 1229.41 291.619C1229.23 289.995 1228.68 288.719 1227.75 287.791C1226.88 286.805 1225.35 286.312 1223.14 286.312C1220.94 286.312 1219.31 286.834 1218.27 287.878C1217.28 288.864 1216.65 290.227 1216.36 291.967C1216.07 293.649 1215.92 295.563 1215.92 297.709V328.333C1215.92 330.885 1216.12 333.002 1216.53 334.684C1216.94 336.308 1217.66 337.555 1218.71 338.425C1219.81 339.237 1221.29 339.643 1223.14 339.643C1225.29 339.643 1226.8 339.15 1227.67 338.164C1228.59 337.12 1229.17 335.757 1229.41 334.075C1229.64 332.393 1229.75 330.508 1229.75 328.42V322.069H1242.11V327.724C1242.11 331.9 1241.56 335.612 1240.46 338.86C1239.35 342.05 1237.41 344.573 1234.63 346.429C1231.9 348.227 1228.04 349.126 1223.06 349.126Z" fill="white"/>
<path d="M892.856 245.169V60.4892H943.7C956.164 60.4892 966.956 61.8572 976.076 64.5932C985.196 67.3292 992.264 72.2692 997.28 79.4132C1002.45 86.4052 1005.03 96.3612 1005.03 109.281C1005.03 116.881 1004.42 123.645 1003.21 129.573C1001.99 135.501 999.712 140.669 996.368 145.077C993.176 149.333 988.54 152.905 982.46 155.793L1007.77 245.169H965.588L945.296 162.405H933.668V245.169H892.856ZM933.668 138.921H945.068C950.844 138.921 955.328 137.933 958.52 135.957C961.712 133.829 963.916 130.865 965.132 127.065C966.5 123.113 967.184 118.401 967.184 112.929C967.184 105.025 965.74 98.8692 962.852 94.4612C959.964 90.0532 954.644 87.8492 946.892 87.8492H933.668V138.921ZM1070.18 247.905C1056.05 247.905 1044.95 245.625 1036.89 241.065C1028.99 236.353 1023.44 229.589 1020.25 220.773C1017.06 211.805 1015.46 200.861 1015.46 187.941V60.4892H1055.82V194.097C1055.82 197.897 1056.12 201.697 1056.73 205.497C1057.34 209.297 1058.63 212.413 1060.61 214.845C1062.73 217.277 1065.93 218.493 1070.18 218.493C1074.59 218.493 1077.78 217.277 1079.76 214.845C1081.73 212.413 1082.95 209.297 1083.41 205.497C1084.01 201.697 1084.32 197.897 1084.32 194.097V60.4892H1124.9V187.941C1124.9 200.861 1123.23 211.805 1119.89 220.773C1116.69 229.589 1111.15 236.353 1103.24 241.065C1095.34 245.625 1084.32 247.905 1070.18 247.905ZM1139.47 245.169V60.4892H1168.2L1206.05 149.409V60.4892H1239.79V245.169H1212.2L1174.35 149.409V245.169H1139.47Z" fill="white"/>
<circle cx="200.174" cy="203.169" r="199" fill="#322A7D"/>
<path d="M183.792 166.812H185.844V176.046H219.839V166.812H221.891V120.644H232.15V166.812H234.202V176.046H249.592V195.54H243.437V215.033C243.437 215.033 233.56 226.533 229.072 235.04C227.022 238.926 225.967 241.174 224.456 245.3C222.601 250.365 221.378 251.969 221.378 258.638C221.378 265.307 229.072 277.618 229.072 279.157C229.072 280.697 226.508 288.391 226.508 288.391H179.175C179.167 288.368 176.611 280.695 176.61 279.157C176.61 277.618 184.304 265.307 184.305 258.638C184.305 251.969 183.083 250.365 181.228 245.3C179.716 241.174 178.66 238.926 176.61 235.04C172.132 226.55 162.286 215.079 162.247 215.033V195.54H156.091V176.046H171.48V166.812H173.532V120.644H183.792V166.812Z" fill="#F5F5F5"/>
<path d="M359.97 181.183C370.924 192.137 370.924 209.897 359.97 220.852C359.97 220.852 237.557 340.851 236.355 342.129C235.153 343.407 223.161 353.73 207.054 341.754C194.761 331.113 196.851 314.814 196.851 308.291L196.851 262.376L210.467 263.146L210.467 315.408C210.616 320.038 211.547 325.655 214.906 328.118C223.813 334.649 229.739 328.911 229.744 328.906L348.4 212.587C354.79 206.197 354.79 195.837 348.4 189.447L212.155 53.2018C205.765 46.8121 195.405 46.8121 189.015 53.2018L47.9282 194.288C41.5383 200.678 41.5384 211.038 47.9282 217.428L211.545 380.045C217.935 386.435 221.355 388.381 237.13 388.381L289.176 388.169V401.649H237.332C221.355 401.649 211.545 399.169 204.107 390.789L38.011 225.693C27.0569 214.738 27.0567 196.978 38.011 186.024L181.577 42.4581C192.531 31.5041 210.291 31.5041 221.246 42.4581L359.97 181.183Z" fill="#F5F5F5"/>
<path d="M1245.88 401H254.381C241.811 401 230.365 400.869 219.882 400.571C252.7 398.806 284.19 394.564 313.72 388.191L1245.88 388V401Z" fill="white"/>
</svg>
